<mxfile host="app.diagrams.net" modified="2023-10-19T18:00:17.100Z" agent="Mozilla/5.0 (X11; Ubuntu; Linux x86_64; rv:109.0) Gecko/20100101 Firefox/116.0" etag="m3Km8Rcv9J6bhaTUqZHE" version="22.0.5" type="device">
  <diagram name="Strona-1" id="MLXacG-JXwjNwVEaNqvs">
    <mxGraphModel dx="1434" dy="795" grid="1" gridSize="10" guides="1" tooltips="1" connect="1" arrows="1" fold="1" page="1" pageScale="1" pageWidth="827" pageHeight="1169" math="0" shadow="0">
      <root>
        <mxCell id="0" />
        <mxCell id="1" parent="0" />
        <mxCell id="kTNTQaPrIcs9Nfy0wRLy-1" value="&lt;div style=&quot;text-align: left;&quot;&gt;&lt;span style=&quot;background-color: initial;&quot;&gt;Potrzebujemy:&lt;/span&gt;&lt;/div&gt;&lt;div style=&quot;text-align: left;&quot;&gt;&lt;span style=&quot;background-color: initial;&quot;&gt;- model wymagań&lt;/span&gt;&lt;/div&gt;&lt;div style=&quot;text-align: left;&quot;&gt;&lt;span style=&quot;background-color: initial;&quot;&gt;- przypadki użycia&lt;/span&gt;&lt;/div&gt;&lt;div style=&quot;text-align: left;&quot;&gt;&lt;span style=&quot;background-color: initial;&quot;&gt;- model klas&lt;/span&gt;&lt;/div&gt;" style="rounded=0;whiteSpace=wrap;html=1;" parent="1" vertex="1">
          <mxGeometry x="40" y="50" width="120" height="90" as="geometry" />
        </mxCell>
        <mxCell id="kTNTQaPrIcs9Nfy0wRLy-2" value="Wymagania funkcjonalne" style="html=1;whiteSpace=wrap;" parent="1" vertex="1">
          <mxGeometry x="420" y="260" width="110" height="50" as="geometry" />
        </mxCell>
        <mxCell id="kTNTQaPrIcs9Nfy0wRLy-3" value="Gromadzenie danych&amp;nbsp;" style="html=1;whiteSpace=wrap;" parent="1" vertex="1">
          <mxGeometry x="310" y="350" width="120" height="60" as="geometry" />
        </mxCell>
        <mxCell id="kTNTQaPrIcs9Nfy0wRLy-4" value="Panel dla właściceli stron" style="html=1;whiteSpace=wrap;" parent="1" vertex="1">
          <mxGeometry x="100" y="350" width="120" height="60" as="geometry" />
        </mxCell>
        <mxCell id="kTNTQaPrIcs9Nfy0wRLy-5" value="Add-ony do umieszczenia na stronie" style="html=1;whiteSpace=wrap;" parent="1" vertex="1">
          <mxGeometry x="730" y="350" width="120" height="60" as="geometry" />
        </mxCell>
        <mxCell id="kTNTQaPrIcs9Nfy0wRLy-14" value="&lt;div&gt;Podsumowane statystyki oraz przekierowania do podstron&lt;br&gt;&lt;/div&gt;" style="html=1;whiteSpace=wrap;" parent="1" vertex="1">
          <mxGeometry x="110" y="470" width="110" height="60" as="geometry" />
        </mxCell>
        <mxCell id="kTNTQaPrIcs9Nfy0wRLy-16" value="Rekomendacje na wydłużenie czasu użytkownika&lt;br&gt;na stronie" style="html=1;whiteSpace=wrap;" parent="1" vertex="1">
          <mxGeometry x="110" y="750" width="110" height="60" as="geometry" />
        </mxCell>
        <mxCell id="kTNTQaPrIcs9Nfy0wRLy-17" value="Endpoint umożliwiający zarejestrowanie faktu odwiedzenia strony&amp;nbsp;" style="html=1;whiteSpace=wrap;" parent="1" vertex="1">
          <mxGeometry x="310" y="480" width="110" height="80" as="geometry" />
        </mxCell>
        <mxCell id="kTNTQaPrIcs9Nfy0wRLy-18" value="&lt;div&gt;Spersonalizowany chatbot, znający zainteresowania użytwkonika oraz preferencje uzytkownika&lt;/div&gt;" style="html=1;whiteSpace=wrap;" parent="1" vertex="1">
          <mxGeometry x="740" y="470" width="110" height="100" as="geometry" />
        </mxCell>
        <mxCell id="kTNTQaPrIcs9Nfy0wRLy-19" value="Rekomendacja produktów podobnych (e-commerce)" style="html=1;whiteSpace=wrap;" parent="1" vertex="1">
          <mxGeometry x="740" y="600" width="110" height="60" as="geometry" />
        </mxCell>
        <mxCell id="kTNTQaPrIcs9Nfy0wRLy-27" value="Przetwarzanie danych" style="html=1;whiteSpace=wrap;" parent="1" vertex="1">
          <mxGeometry x="520" y="350" width="120" height="60" as="geometry" />
        </mxCell>
        <mxCell id="kTNTQaPrIcs9Nfy0wRLy-30" value="" style="endArrow=block;dashed=1;endFill=0;endSize=12;html=1;rounded=0;exitX=1;exitY=0.5;exitDx=0;exitDy=0;entryX=0;entryY=0.5;entryDx=0;entryDy=0;" parent="1" source="kTNTQaPrIcs9Nfy0wRLy-4" target="kTNTQaPrIcs9Nfy0wRLy-3" edge="1">
          <mxGeometry width="160" relative="1" as="geometry">
            <mxPoint x="280" y="380" as="sourcePoint" />
            <mxPoint x="440" y="380" as="targetPoint" />
          </mxGeometry>
        </mxCell>
        <mxCell id="kTNTQaPrIcs9Nfy0wRLy-31" value="Extends" style="edgeLabel;html=1;align=center;verticalAlign=middle;resizable=0;points=[];" parent="kTNTQaPrIcs9Nfy0wRLy-30" vertex="1" connectable="0">
          <mxGeometry x="-0.02" y="2" relative="1" as="geometry">
            <mxPoint as="offset" />
          </mxGeometry>
        </mxCell>
        <mxCell id="kTNTQaPrIcs9Nfy0wRLy-33" value="" style="endArrow=block;dashed=1;endFill=0;endSize=12;html=1;rounded=0;exitX=-0.018;exitY=0.507;exitDx=0;exitDy=0;entryX=1;entryY=0.5;entryDx=0;entryDy=0;exitPerimeter=0;" parent="1" source="kTNTQaPrIcs9Nfy0wRLy-27" target="kTNTQaPrIcs9Nfy0wRLy-3" edge="1">
          <mxGeometry width="160" relative="1" as="geometry">
            <mxPoint x="490" y="409.43" as="sourcePoint" />
            <mxPoint x="410" y="409.43" as="targetPoint" />
          </mxGeometry>
        </mxCell>
        <mxCell id="kTNTQaPrIcs9Nfy0wRLy-34" value="Extends" style="edgeLabel;html=1;align=center;verticalAlign=middle;resizable=0;points=[];" parent="kTNTQaPrIcs9Nfy0wRLy-33" vertex="1" connectable="0">
          <mxGeometry x="-0.02" y="2" relative="1" as="geometry">
            <mxPoint as="offset" />
          </mxGeometry>
        </mxCell>
        <mxCell id="kTNTQaPrIcs9Nfy0wRLy-36" value="" style="endArrow=block;dashed=1;endFill=0;endSize=12;html=1;rounded=0;exitX=0;exitY=0.5;exitDx=0;exitDy=0;entryX=1;entryY=0.5;entryDx=0;entryDy=0;" parent="1" source="kTNTQaPrIcs9Nfy0wRLy-5" target="kTNTQaPrIcs9Nfy0wRLy-27" edge="1">
          <mxGeometry width="160" relative="1" as="geometry">
            <mxPoint x="748" y="420" as="sourcePoint" />
            <mxPoint x="660" y="420" as="targetPoint" />
          </mxGeometry>
        </mxCell>
        <mxCell id="kTNTQaPrIcs9Nfy0wRLy-37" value="Extends" style="edgeLabel;html=1;align=center;verticalAlign=middle;resizable=0;points=[];" parent="kTNTQaPrIcs9Nfy0wRLy-36" vertex="1" connectable="0">
          <mxGeometry x="-0.02" y="2" relative="1" as="geometry">
            <mxPoint as="offset" />
          </mxGeometry>
        </mxCell>
        <mxCell id="kTNTQaPrIcs9Nfy0wRLy-39" value="&lt;div&gt;&amp;nbsp;Model Nadzorowany do sugerowania sprzedazy w oparciu o ruch zakonczony zakupem/anulowaniem/wstrzymaniem&lt;/div&gt;" style="html=1;whiteSpace=wrap;" parent="1" vertex="1">
          <mxGeometry x="495" y="470" width="170" height="120" as="geometry" />
        </mxCell>
        <mxCell id="kTNTQaPrIcs9Nfy0wRLy-40" value="&lt;div&gt;Model Nienadzorowany do klasyfikacji klientow&lt;/div&gt;" style="html=1;whiteSpace=wrap;" parent="1" vertex="1">
          <mxGeometry x="525" y="612.5" width="110" height="67.5" as="geometry" />
        </mxCell>
        <mxCell id="kTNTQaPrIcs9Nfy0wRLy-41" value="" style="endArrow=block;dashed=1;endFill=0;endSize=12;html=1;rounded=0;exitX=0.458;exitY=1;exitDx=0;exitDy=0;entryX=0.5;entryY=1;entryDx=0;entryDy=0;edgeStyle=orthogonalEdgeStyle;exitPerimeter=0;" parent="1" source="kTNTQaPrIcs9Nfy0wRLy-4" target="kTNTQaPrIcs9Nfy0wRLy-27" edge="1">
          <mxGeometry width="160" relative="1" as="geometry">
            <mxPoint x="157.94" y="480" as="sourcePoint" />
            <mxPoint x="572.0600000000002" y="476.6400000000001" as="targetPoint" />
            <Array as="points">
              <mxPoint x="158" y="410" />
              <mxPoint x="158" y="440" />
              <mxPoint x="580" y="440" />
            </Array>
          </mxGeometry>
        </mxCell>
        <mxCell id="kTNTQaPrIcs9Nfy0wRLy-42" value="Extends" style="edgeLabel;html=1;align=center;verticalAlign=middle;resizable=0;points=[];" parent="kTNTQaPrIcs9Nfy0wRLy-41" vertex="1" connectable="0">
          <mxGeometry x="-0.02" y="2" relative="1" as="geometry">
            <mxPoint as="offset" />
          </mxGeometry>
        </mxCell>
        <mxCell id="dfJo5N-SUlv6r4EW2bV--1" value="Dashboard z najczesciej wykonywanym ruchem (sekwencje)" style="html=1;whiteSpace=wrap;" vertex="1" parent="1">
          <mxGeometry x="110" y="610" width="110" height="60" as="geometry" />
        </mxCell>
        <mxCell id="dfJo5N-SUlv6r4EW2bV--2" value="Dashboard z zagrogowanymi danymi o odwiedzinach" style="html=1;whiteSpace=wrap;" vertex="1" parent="1">
          <mxGeometry x="110" y="680" width="110" height="60" as="geometry" />
        </mxCell>
        <mxCell id="dfJo5N-SUlv6r4EW2bV--3" value="Dashboard z klasyfikacjami klientow" style="html=1;whiteSpace=wrap;" vertex="1" parent="1">
          <mxGeometry x="110" y="540" width="110" height="60" as="geometry" />
        </mxCell>
        <mxCell id="dfJo5N-SUlv6r4EW2bV--9" value="Analiza wpisow na blogu" style="html=1;whiteSpace=wrap;" vertex="1" parent="1">
          <mxGeometry x="110" y="820" width="110" height="60" as="geometry" />
        </mxCell>
        <mxCell id="dfJo5N-SUlv6r4EW2bV--10" value="Wtyczka E-Com Analytics" style="rounded=0;whiteSpace=wrap;html=1;" vertex="1" parent="1">
          <mxGeometry x="280" y="50" width="500" height="90" as="geometry" />
        </mxCell>
        <mxCell id="dfJo5N-SUlv6r4EW2bV--12" value="Sesja uzytkownika ktora przetrzymuje informacje odwiedzonych stron, najechanych produktow, czasu w przestoju, czasu w scrollowaniu oraz lokalizacji kazdej z czynnosci" style="html=1;whiteSpace=wrap;" vertex="1" parent="1">
          <mxGeometry x="310" y="580" width="110" height="190" as="geometry" />
        </mxCell>
        <mxCell id="dfJo5N-SUlv6r4EW2bV--13" value="Model wzmacniany do sugerowania produktow w oparciu o decyzje Modelu Nadzorowanego" style="html=1;whiteSpace=wrap;" vertex="1" parent="1">
          <mxGeometry x="525" y="700" width="110" height="155" as="geometry" />
        </mxCell>
        <mxCell id="dfJo5N-SUlv6r4EW2bV--14" value="&lt;div&gt;Newsletter w oparciu o koszyk/dotychczasowe zakupy&lt;/div&gt;" style="html=1;whiteSpace=wrap;" vertex="1" parent="1">
          <mxGeometry x="740" y="680" width="110" height="60" as="geometry" />
        </mxCell>
        <mxCell id="dfJo5N-SUlv6r4EW2bV--15" value="Wykaz wplywu podjetych decyzji przez wtyczke na ruch (powroty przez link/mail/wzmocnienie sprzedazy)" style="html=1;whiteSpace=wrap;" vertex="1" parent="1">
          <mxGeometry x="110" y="890" width="110" height="130" as="geometry" />
        </mxCell>
      </root>
    </mxGraphModel>
  </diagram>
</mxfile>
